<svg width="30" height="30" viewBox="0 0 32 32" fill="none" xmlns="http://www.w3.org/2000/svg">
    <path
        d="M27.5394 17.4962C27.5394 16.2858 27.445 15.4025 27.2408 14.4866H13.9636V19.9497H21.7571C21.6 21.3073 20.7515 23.3519 18.8659 24.7258L18.8395 24.9087L23.0375 28.2942L23.3284 28.3244C25.9995 25.7564 27.5394 21.9779 27.5394 17.4962Z"
        fill="#4285F4" />
    <path
        d="M14.0257 31.7838C17.7958 31.7838 20.9609 30.4901 23.2727 28.2585L18.8664 24.7007C17.6873 25.5578 16.1047 26.1561 14.0257 26.1561C10.3331 26.1561 7.19911 23.6173 6.08191 20.1082L5.91815 20.1226L1.60788 23.5995L1.55151 23.7628C3.84773 28.5171 8.56434 31.7838 14.0257 31.7838Z"
        fill="#34A853" />
    <path
        d="M6.01212 20.0546C5.71772 19.1305 5.54733 18.1403 5.54733 17.1173C5.54733 16.0941 5.71772 15.1041 5.99663 14.18L5.98883 13.9832L1.63012 10.3784L1.48751 10.4507C0.542342 12.4639 0 14.7246 0 17.1173C0 19.51 0.542342 21.7706 1.48751 23.7838L6.01212 20.0546Z"
        fill="#FBBC05" />
    <path
        d="M14.0834 8.11021C16.7175 8.11021 18.4944 9.31257 19.5076 10.3174L23.4667 6.23258C21.0352 3.84432 17.871 2.37842 14.0834 2.37842C8.59677 2.37842 3.85835 5.70549 1.55151 10.5479L6.08728 14.2703C7.22522 10.6962 10.3738 8.11021 14.0834 8.11021Z"
        fill="#EB4335" />
</svg>